HIERARCHY
ROOT Hips
{
	OFFSET 0.000000 100.481300 0.000000
	CHANNELS 6 Xposition Yposition Zposition Xrotation Yrotation Zrotation
	JOINT Spine
	{
		OFFSET -0.279200 12.230698 -2.892100
		CHANNELS 3 Xrotation Yrotation Zrotation
		JOINT Spine1
		{
			OFFSET -0.325700 14.269203 -3.374200
			CHANNELS 3 Xrotation Yrotation Zrotation
			JOINT Spine2
			{
				OFFSET -0.372300 16.307602 -0.352600
				CHANNELS 3 Xrotation Yrotation Zrotation
				JOINT Neck
				{
					OFFSET -0.418800 17.814194 8.416900
					CHANNELS 3 Xrotation Yrotation Zrotation
					JOINT Head
					{
						OFFSET 0.000000 7.031097 3.806800
						CHANNELS 3 Xrotation Yrotation Zrotation
						JOINT HeadTop_End
						{
							OFFSET 0.000000 24.646606 12.978600
							CHANNELS 3 Xrotation Yrotation Zrotation
							End Site
							{
								OFFSET 0.000000 27.854965 0.000000
							}
						}
					}
				}
				JOINT LeftShoulder
				{
					OFFSET 16.952999 14.495407 -7.737500
					CHANNELS 3 Xrotation Yrotation Zrotation
					JOINT LeftArm
					{
						OFFSET 9.308998 -2.777710 0.208600
						CHANNELS 3 Xrotation Yrotation Zrotation
						JOINT LeftForeArm
						{
							OFFSET 29.972298 0.000000 0.000000
							CHANNELS 3 Xrotation Yrotation Zrotation
							JOINT LeftHand
							{
								OFFSET 26.026505 0.000000 0.000000
								CHANNELS 3 Xrotation Yrotation Zrotation
								JOINT LeftHandThumb1
								{
									OFFSET 12.240501 -7.147949 9.207150
									CHANNELS 3 Xrotation Yrotation Zrotation
									JOINT LeftHandThumb2
									{
										OFFSET 4.138618 -2.389435 2.389433
										CHANNELS 3 Xrotation Yrotation Zrotation
										JOINT LeftHandThumb3
										{
											OFFSET 2.726913 -1.574387 1.574386
											CHANNELS 3 Xrotation Yrotation Zrotation
											JOINT LeftHandThumb4
											{
												OFFSET 3.941010 -2.275345 2.275342
												CHANNELS 3 Xrotation Yrotation Zrotation
												End Site
												{
													OFFSET -0.005798 5.087799 0.009903
												}
											}
										}
									}
								}
								JOINT LeftHandIndex1
								{
									OFFSET 24.424698 -1.985611 5.953459
									CHANNELS 3 Xrotation Yrotation Zrotation
									JOINT LeftHandIndex2
									{
										OFFSET 6.426697 0.000000 0.000000
										CHANNELS 3 Xrotation Yrotation Zrotation
										JOINT LeftHandIndex3
										{
											OFFSET 5.337898 0.000000 0.000000
											CHANNELS 3 Xrotation Yrotation Zrotation
											JOINT LeftHandIndex4
											{
												OFFSET 4.409401 0.000000 0.000000
												CHANNELS 3 Xrotation Yrotation Zrotation
												End Site
												{
													OFFSET 0.000000 4.409363 0.014373
												}
											}
										}
									}
								}
								JOINT LeftHandMiddle1
								{
									OFFSET 23.810104 0.000000 0.000000
									CHANNELS 3 Xrotation Yrotation Zrotation
									JOINT LeftHandMiddle2
									{
										OFFSET 7.176498 0.000000 0.000000
										CHANNELS 3 Xrotation Yrotation Zrotation
										JOINT LeftHandMiddle3
										{
											OFFSET 6.774902 0.000000 0.000000
											CHANNELS 3 Xrotation Yrotation Zrotation
											JOINT LeftHandMiddle4
											{
												OFFSET 5.403328 0.000000 0.000000
												CHANNELS 3 Xrotation Yrotation Zrotation
												End Site
												{
													OFFSET -0.027702 5.403244 0.017414
												}
											}
										}
									}
								}
								JOINT LeftHandRing1
								{
									OFFSET 22.908401 -0.839279 -6.020567
									CHANNELS 3 Xrotation Yrotation Zrotation
									JOINT LeftHandRing2
									{
										OFFSET 6.337502 0.000000 0.000000
										CHANNELS 3 Xrotation Yrotation Zrotation
										JOINT LeftHandRing3
										{
											OFFSET 5.779297 0.000000 0.000000
											CHANNELS 3 Xrotation Yrotation Zrotation
											JOINT LeftHandRing4
											{
												OFFSET 4.965698 0.000000 0.000000
												CHANNELS 3 Xrotation Yrotation Zrotation
												End Site
												{
													OFFSET 0.000000 4.965668 0.016186
												}
											}
										}
									}
								}
								JOINT LeftHandPinky1
								{
									OFFSET 20.037003 -1.530319 -10.950146
									CHANNELS 3 Xrotation Yrotation Zrotation
									JOINT LeftHandPinky2
									{
										OFFSET 5.254700 0.000000 0.000000
										CHANNELS 3 Xrotation Yrotation Zrotation
										JOINT LeftHandPinky3
										{
											OFFSET 4.810204 0.000000 0.000000
											CHANNELS 3 Xrotation Yrotation Zrotation
											JOINT LeftHandPinky4
											{
												OFFSET 3.647202 0.000000 0.000000
												CHANNELS 3 Xrotation Yrotation Zrotation
												End Site
												{
													OFFSET 0.000000 3.647186 0.011889
												}
											}
										}
									}
								}
							}
						}
					}
				}
				JOINT RightShoulder
				{
					OFFSET -15.141001 14.495407 -7.737500
					CHANNELS 3 Xrotation Yrotation Zrotation
					JOINT RightArm
					{
						OFFSET -9.308998 -2.777710 0.208500
						CHANNELS 3 Xrotation Yrotation Zrotation
						JOINT RightForeArm
						{
							OFFSET -29.972300 0.000000 0.000000
							CHANNELS 3 Xrotation Yrotation Zrotation
							JOINT RightHand
							{
								OFFSET -26.026505 0.000000 0.000000
								CHANNELS 3 Xrotation Yrotation Zrotation
								JOINT RightHandThumb1
								{
									OFFSET -12.240601 -7.148026 9.207092
									CHANNELS 3 Xrotation Yrotation Zrotation
									JOINT RightHandThumb2
									{
										OFFSET -4.138618 -2.389435 2.389433
										CHANNELS 3 Xrotation Yrotation Zrotation
										JOINT RightHandThumb3
										{
											OFFSET -2.726974 -1.574417 1.574421
											CHANNELS 3 Xrotation Yrotation Zrotation
											JOINT RightHandThumb4
											{
												OFFSET -3.941010 -2.275345 2.275343
												CHANNELS 3 Xrotation Yrotation Zrotation
												End Site
												{
													OFFSET 0.005814 5.087799 0.009927
												}
											}
										}
									}
								}
								JOINT RightHandIndex1
								{
									OFFSET -24.424698 -1.985657 5.953444
									CHANNELS 3 Xrotation Yrotation Zrotation
									JOINT RightHandIndex2
									{
										OFFSET -6.426697 0.000000 0.000000
										CHANNELS 3 Xrotation Yrotation Zrotation
										JOINT RightHandIndex3
										{
											OFFSET -5.337898 0.000000 0.000000
											CHANNELS 3 Xrotation Yrotation Zrotation
											JOINT RightHandIndex4
											{
												OFFSET -4.409401 0.000000 0.000000
												CHANNELS 3 Xrotation Yrotation Zrotation
												End Site
												{
													OFFSET 0.000000 4.409363 0.014408
												}
											}
										}
									}
								}
								JOINT RightHandMiddle1
								{
									OFFSET -23.810097 0.000000 0.000000
									CHANNELS 3 Xrotation Yrotation Zrotation
									JOINT RightHandMiddle2
									{
										OFFSET -7.176498 0.000000 0.000000
										CHANNELS 3 Xrotation Yrotation Zrotation
										JOINT RightHandMiddle3
										{
											OFFSET -6.774902 0.000000 0.000000
											CHANNELS 3 Xrotation Yrotation Zrotation
											JOINT RightHandMiddle4
											{
												OFFSET -5.403328 0.000000 0.000000
												CHANNELS 3 Xrotation Yrotation Zrotation
												End Site
												{
													OFFSET 0.027702 5.403244 0.017457
												}
											}
										}
									}
								}
								JOINT RightHandRing1
								{
									OFFSET -22.908302 -0.839325 -6.020576
									CHANNELS 3 Xrotation Yrotation Zrotation
									JOINT RightHandRing2
									{
										OFFSET -6.337502 0.000000 0.000000
										CHANNELS 3 Xrotation Yrotation Zrotation
										JOINT RightHandRing3
										{
											OFFSET -5.779297 0.000000 0.000000
											CHANNELS 3 Xrotation Yrotation Zrotation
											JOINT RightHandRing4
											{
												OFFSET -4.965698 0.000000 0.000000
												CHANNELS 3 Xrotation Yrotation Zrotation
												End Site
												{
													OFFSET 0.000000 4.965668 0.016226
												}
											}
										}
									}
								}
								JOINT RightHandPinky1
								{
									OFFSET -20.037003 -1.530334 -10.950259
									CHANNELS 3 Xrotation Yrotation Zrotation
									JOINT RightHandPinky2
									{
										OFFSET -5.254700 0.000000 0.000000
										CHANNELS 3 Xrotation Yrotation Zrotation
										JOINT RightHandPinky3
										{
											OFFSET -4.810204 0.000000 0.000000
											CHANNELS 3 Xrotation Yrotation Zrotation
											JOINT RightHandPinky4
											{
												OFFSET -3.647202 0.000000 0.000000
												CHANNELS 3 Xrotation Yrotation Zrotation
												End Site
												{
													OFFSET 0.000000 3.647186 0.011917
												}
											}
										}
									}
								}
							}
						}
					}
				}
			}
		}
	}
	JOINT LeftUpLeg
	{
		OFFSET 15.427100 -6.655098 0.678600
		CHANNELS 3 Xrotation Yrotation Zrotation
		JOINT LeftLeg
		{
			OFFSET 4.081073 -39.591068 13.024000
			CHANNELS 3 Xrotation Yrotation Zrotation
			JOINT LeftFoot
			{
				OFFSET -4.081074 -37.707932 -15.979700
				CHANNELS 3 Xrotation Yrotation Zrotation
				JOINT LeftToeBase
				{
					OFFSET 5.346399 -15.068900 20.645000
					CHANNELS 3 Xrotation Yrotation Zrotation
					JOINT LeftToe_End
					{
						OFFSET 2.754700 0.931300 11.300900
						CHANNELS 3 Xrotation Yrotation Zrotation
						End Site
						{
							OFFSET 0.000000 11.669021 0.000000
						}
					}
				}
			}
		}
	}
	JOINT RightUpLeg
	{
		OFFSET -15.569500 -6.655098 0.678600
		CHANNELS 3 Xrotation Yrotation Zrotation
		JOINT RightLeg
		{
			OFFSET -4.081825 -39.591045 13.023800
			CHANNELS 3 Xrotation Yrotation Zrotation
			JOINT RightFoot
			{
				OFFSET 4.081824 -37.707954 -15.979600
				CHANNELS 3 Xrotation Yrotation Zrotation
				JOINT RightToeBase
				{
					OFFSET -5.346400 -15.068900 20.645000
					CHANNELS 3 Xrotation Yrotation Zrotation
					JOINT RightToe_End
					{
						OFFSET -2.754700 0.931300 11.300900
						CHANNELS 3 Xrotation Yrotation Zrotation
						End Site
						{
							OFFSET 0.000000 11.669021 0.000000
						}
					}
				}
			}
		}
	}
}
MOTION
Frames: 4
Frame Time: 0.033333
2.679795 85.162735 -2.923172 -166.839733 -115.803248 -171.318479 2.487587 -0.861316 -10.259890 2.976943 2.574434 -2.215231 2.978257 2.617358 -2.257566 -21.845976 -11.371204 4.923360 362.272387 62.835760 -363.390133 -0.000000 -0.000000 -0.000001 13.521012 -33.162631 11.100650 -24.743520 -13.299842 -44.600702 21.926656 -13.108187 -3.113746 -34.009083 2.960577 26.918406 40.109944 -15.297230 -0.360436 5.639930 28.097737 11.338735 1.088506 40.896314 22.734046 0.000004 0.000001 0.000000 6.882283 2.840006 -61.140493 8.247961 7.640055 -89.897912 2.146191 8.173412 -41.827812 0.000002 -0.000002 -0.000002 -2.345527 4.688863 -62.655272 8.754190 9.897070 -87.051273 1.995349 4.929254 -37.483416 0.000000 0.000000 0.000002 -9.042476 10.045601 -60.766192 8.524018 9.508882 -66.892899 6.576536 9.896789 -70.385120 -0.000001 -0.000002 0.000001 -17.946786 14.754984 -51.485922 8.868342 8.666999 -84.811989 4.540452 8.852606 -59.152990 0.000000 -0.000001 0.000001 -1.264048 18.276570 23.982635 50.729014 9.543785 16.496210 13.382020 121.330292 -31.612991 5.772783 -4.819624 -3.556547 0.277497 -1.521501 -1.570514 7.169054 -41.689641 -15.773499 -4.517972 11.064486 4.673951 -0.000000 -0.000003 -0.000000 6.412843 -12.738391 14.389578 9.941745 -7.465163 101.743229 4.405027 -9.947441 61.138874 -0.000004 0.000002 0.000001 2.653206 -11.302320 44.730933 9.916099 -9.880674 94.351195 8.462599 -8.530812 83.992250 -0.000001 0.000003 0.000002 2.140165 -7.454478 61.765018 9.609250 -8.992477 89.388694 11.175460 -10.370860 97.638155 -0.000002 0.000003 0.000000 -4.886663 -23.798122 68.396169 13.518294 -7.949266 112.864949 8.544477 -10.117955 85.305648 -0.000003 0.000001 -0.000001 -48.706748 24.508295 33.097676 31.826530 -28.318220 5.470170 2.415398 4.646191 -13.982869 -1.639697 -0.000521 -0.003109 -0.000000 -0.000001 -0.000000 -23.803800 -16.772882 -27.020966 27.523352 -7.043055 -2.967948 -8.765280 8.115863 26.144450 -0.000442 -0.000404 0.003542 -0.000000 0.000000 0.000000 
2.957599 84.950928 -2.885582 -166.176098 -111.999010 -170.726712 2.693891 -0.864456 -10.260880 3.150292 2.567032 -2.104607 3.151350 2.611272 -2.147401 -21.814246 -18.022004 4.419854 361.335531 57.655567 -361.882492 -0.000000 0.000000 -0.000000 13.350000 -32.721473 10.968017 -23.208723 -10.559443 -42.949954 20.167694 -15.880495 -2.636085 -33.585690 3.822969 28.002642 40.109944 -15.297235 -0.360439 5.639929 28.097739 11.338732 1.088512 40.896321 22.734040 -0.000001 -0.000000 0.000000 6.882284 2.840006 -61.140486 8.247959 7.640053 -89.897912 2.146191 8.173412 -41.827805 -0.000000 -0.000001 -0.000002 -2.345525 4.688862 -62.655272 8.754189 9.897070 -87.051273 1.995348 4.929254 -37.483416 0.000000 0.000001 -0.000002 -9.042477 10.045601 -60.766192 8.524019 9.508883 -66.892899 6.576540 9.896788 -70.385120 0.000001 -0.000001 0.000002 -17.946786 14.754983 -51.485922 8.868339 8.666999 -84.811982 4.540451 8.852607 -59.152983 0.000000 0.000000 -0.000000 -1.293314 18.346590 24.142326 49.215212 11.798971 14.749512 14.469927 120.485357 -32.865784 6.008341 -5.614069 -2.002990 0.277502 -1.521499 -1.570516 7.169049 -41.689644 -15.773501 -4.517973 11.064485 4.673951 0.000000 -0.000001 -0.000001 6.412846 -12.738385 14.389576 9.941748 -7.465160 101.743229 4.405030 -9.947439 61.138874 0.000002 -0.000001 -0.000001 2.653209 -11.302322 44.730929 9.916098 -9.880671 94.351195 8.462603 -8.530813 83.992250 0.000000 0.000003 0.000003 2.140168 -7.454473 61.765018 9.609254 -8.992475 89.388694 11.175460 -10.370863 97.638148 0.000002 0.000002 -0.000002 -4.886656 -23.798126 68.396162 13.518297 -7.949264 112.864949 8.544479 -10.117950 85.305648 0.000000 -0.000001 -0.000001 -47.567644 24.949727 35.627390 32.183025 -26.362874 4.987385 1.025609 5.019954 -14.699272 -1.641159 -0.000477 -0.003112 0.000000 -0.000002 -0.000000 -25.740683 -15.955177 -26.370648 27.592725 -4.285185 -2.656651 -7.554275 8.846167 24.681015 -0.080363 -0.000554 0.180204 -0.000000 0.000000 -0.000000 
3.254136 84.797531 -2.814859 -164.799651 -108.334587 -169.501226 2.840299 -0.861201 -10.211876 3.295451 2.577875 -1.989033 3.296401 2.623456 -2.032204 -22.117577 -24.064887 3.830680 360.395888 52.845044 -360.130111 0.000001 -0.000001 -0.000000 12.530170 -32.101018 9.595602 -22.261490 -8.409944 -40.948552 19.089798 -17.789508 -2.336967 -32.993625 3.976732 29.199766 40.109948 -15.297226 -0.360436 5.639933 28.097740 11.338734 1.088506 40.896318 22.734046 0.000001 0.000001 0.000001 6.882283 2.840007 -61.140486 8.247963 7.640054 -89.897912 2.146191 8.173411 -41.827809 0.000001 0.000003 0.000000 -2.345529 4.688860 -62.655265 8.754186 9.897068 -87.051266 1.995352 4.929257 -37.483416 0.000000 -0.000001 -0.000001 -9.042478 10.045600 -60.766192 8.524017 9.508882 -66.892899 6.576535 9.896790 -70.385120 0.000001 0.000000 -0.000002 -17.946788 14.754983 -51.485922 8.868341 8.666998 -84.811989 4.540451 8.852606 -59.152983 0.000001 0.000001 0.000001 -1.360947 18.515543 24.527585 48.534706 13.750471 12.852516 15.823938 119.847594 -34.368682 6.207883 -5.889295 -1.211304 0.277500 -1.521499 -1.570514 7.169051 -41.689641 -15.773499 -4.517976 11.064486 4.673951 0.000001 -0.000003 0.000004 6.412841 -12.738387 14.389578 9.941747 -7.465164 101.743229 4.405029 -9.947441 61.138874 -0.000001 -0.000003 -0.000002 2.653207 -11.302321 44.730933 9.916095 -9.880669 94.351188 8.462600 -8.530817 83.992250 -0.000002 -0.000002 -0.000001 2.140167 -7.454474 61.765025 9.609248 -8.992479 89.388701 11.175462 -10.370859 97.638148 0.000001 0.000003 -0.000002 -4.886660 -23.798126 68.396162 13.518298 -7.949267 112.864949 8.544480 -10.117953 85.305654 0.000003 -0.000001 -0.000002 -46.464892 25.502712 37.991664 32.383733 -24.479077 4.461117 -0.221181 5.397790 -15.427832 -1.642668 -0.000523 -0.003157 -0.000000 0.000001 -0.000000 -27.621073 -15.320671 -25.557665 27.351564 -1.588184 -2.248216 -6.100911 9.601746 23.262296 -0.425287 -0.000869 0.065887 0.000000 -0.000000 0.000000 
3.557402 84.711792 -2.694380 -162.311304 -104.818781 -167.140507 3.010289 -0.871101 -10.225516 3.373571 2.553363 -1.887150 3.374151 2.599871 -1.930700 -22.415103 -29.852530 3.288673 360.161066 48.323240 -359.211915 -0.000000 -0.000002 -0.000000 11.994718 -31.489143 8.738203 -21.182932 -5.784581 -39.549019 17.507119 -20.331477 -2.259936 -32.519740 4.601899 30.304825 40.109944 -15.297230 -0.360436 5.639931 28.097733 11.338729 1.088513 40.896321 22.734047 0.000001 -0.000000 0.000000 6.882284 2.840007 -61.140486 8.247959 7.640053 -89.897912 2.146191 8.173413 -41.827809 -0.000001 0.000001 -0.000002 -2.345528 4.688862 -62.655265 8.754188 9.897073 -87.051273 1.995350 4.929255 -37.483419 -0.000001 -0.000001 0.000002 -9.042477 10.045600 -60.766192 8.524019 9.508881 -66.892899 6.576536 9.896789 -70.385120 0.000001 0.000000 -0.000001 -17.946786 14.754983 -51.485922 8.868341 8.667000 -84.811989 4.540454 8.852607 -59.152983 -0.000001 -0.000002 -0.000000 -1.450946 18.735540 25.029484 48.426017 15.551828 10.957362 17.196318 119.305441 -35.908343 6.390596 -6.045472 -0.633756 0.277499 -1.521498 -1.570513 7.169051 -41.689637 -15.773502 -4.517974 11.064483 4.673951 -0.000002 -0.000001 -0.000002 6.412845 -12.738384 14.389576 9.941750 -7.465166 101.743229 4.405024 -9.947439 61.138881 -0.000002 0.000000 -0.000001 2.653206 -11.302320 44.730929 9.916094 -9.880671 94.351188 8.462600 -8.530811 83.992243 -0.000002 -0.000003 -0.000002 2.140167 -7.454477 61.765018 9.609254 -8.992480 89.388694 11.175462 -10.370865 97.638148 0.000001 0.000003 -0.000002 -4.886657 -23.798124 68.396169 13.518300 -7.949270 112.864949 8.544478 -10.117953 85.305648 0.000000 0.000000 -0.000001 -45.313562 26.244753 40.079984 32.400577 -22.761250 3.860211 -1.375422 5.769127 -16.100986 -1.680747 -0.000535 -0.003153 -0.000000 0.000001 0.000000 -29.431097 -14.785836 -24.608005 26.847016 1.001595 -1.894476 -4.450905 10.280890 22.002368 -0.158914 0.000175 -0.114659 0.000000 -0.000000 -0.000000 
